PathFileType	4	(X/Y/Z)	E:\Qualisys_Data\Carbon_Farble_Plate\Data\Amateur_Runner\S14\T3\S14T3V21_c3d.trc
DataRate	CameraRate	NumFrames	NumMarkers	Units	OrigDataRate	OrigDataStartFrame	OrigNumFrames
200.000000	200.000000	5	39	mm	200.000000	122	326
Frame#	Time	LSHO			RSHO			LICST			RICST			LASIS			LHEEL			RASIS			LTROC			RTROC			SACR			LTH1			LSK4			LTH2			LTH3			RHM5			LSK2			LTH4			RTH1			LTOE			RTH2			RTH3			RTH4			LLEP			RLEP			LSK1			LSK3			RSK1			LHM5			RSK2			LFT1			RSK3			RSK4			LLME			RLME			RTOE			RHEEL			RFT1			RFT2			LFT2			
		X1	Y1	Z1	X2	Y2	Z2	X3	Y3	Z3	X4	Y4	Z4	X5	Y5	Z5	X6	Y6	Z6	X7	Y7	Z7	X8	Y8	Z8	X9	Y9	Z9	X10	Y10	Z10	X11	Y11	Z11	X12	Y12	Z12	X13	Y13	Z13	X14	Y14	Z14	X15	Y15	Z15	X16	Y16	Z16	X17	Y17	Z17	X18	Y18	Z18	X19	Y19	Z19	X20	Y20	Z20	X21	Y21	Z21	X22	Y22	Z22	X23	Y23	Z23	X24	Y24	Z24	X25	Y25	Z25	X26	Y26	Z26	X27	Y27	Z27	X28	Y28	Z28	X29	Y29	Z29	X30	Y30	Z30	X31	Y31	Z31	X32	Y32	Z32	X33	Y33	Z33	X34	Y34	Z34	X35	Y35	Z35	X36	Y36	Z36	X37	Y37	Z37	X38	Y38	Z38	X39	Y39	Z39	

123	0.61	-1095.678100585938	1387.509643554688	-543.2593994140625	-1099.165283203125	1400.984375	-231.8217620849609	-1168.902221679688	955.6264038085938	-500.44482421875	-1134.534912109375	952.7755126953124	-219.9919281005859	-1126.208374023438	903.7801513671876	-479.8665161132812	-1534.270751953125	135.1822204589844	-364.6445007324219	-1110.75341796875	911.5366821289062	-242.0239868164062	-1271.652099609375	849.6489868164062	-506.5265197753906	-1247.069458007812	833.8968505859375	-184.8451690673828	-1289.183715820312	968.247802734375	-358.3541259765625	-1205.230712890625	612.9290771484375	-508.1442565917969	-1387.960327148438	303.8982849121094	-448.3810119628906	-1278.109497070312	615.2213134765625	-485.3061828613281	-1196.681518554688	516.8274536132812	-480.6331176757812	-1335.038696289062	175.8741149902344	-200.5933990478516	-1331.426025390625	381.1369018554688	-471.7228698730469	-1274.047607421875	519.5425415039062	-463.437744140625	-1034.83056640625	669.594482421875	-187.68115234375	-1289.359497070312	61.90074920654297	-388.5912475585938	-1107.01171875	640.3941650390625	-173.8384399414062	-995.6546020507812	579.205810546875	-210.9100494384766	-1071.611938476562	546.3268432617188	-192.1904296875	-1246.677734375	441.8689270019531	-472.1263732910156	-1030.578857421875	495.8970031738281	-197.4975433349609	-1262.851684570312	335.7171936035156	-463.1384582519531	-1322.566772460938	255.8893432617188	-441.4446105957031	-1103.8779296875	410.8728332519531	-204.7490692138672	-1358.545288085938	65.49327087402344	-449.7143249511719	-1152.105102539062	482.0852966308594	-205.2415161132812	-1530.71630859375	101.96337890625	-338.5881042480469	-1192.761840820312	359.79833984375	-220.8589019775391	-1230.214477539062	429.0902709960938	-219.9623260498047	-1462.59326171875	145.2318267822266	-421.623046875	-1358.526611328125	313.76171875	-243.4631958007812	-1282.420043945312	117.9473342895508	-261.4909362792969	-1414.555297851562	337.0186767578125	-303.1017150878906	-1430.161743164062	308.580078125	-329.5816955566406	-1435.692016601562	329.0836791992188	-280.16943359375	-1543.12890625	107.8294219970703	-393.4730834960938
124	0.615	-1073.19287109375	1392.433715820312	-541.9591064453125	-1080.899780273438	1405.283447265625	-231.3482666015625	-1146.9296875	958.6796264648438	-500.7145080566406	-1112.700073242188	956.631103515625	-220.4759063720703	-1104.710205078125	906.5736083984376	-481.0050354003906	-1529.519165039062	142.0601959228516	-365.3239440917969	-1089.308715820312	915.3595581054688	-242.3052368164062	-1250.520629882812	853.1290893554688	-506.4815063476562	-1224.653930664062	838.363037109375	-184.5342407226562	-1267.658935546875	971.622802734375	-358.8316955566406	-1192.067016601562	616.3931884765625	-508.3241882324219	-1383.29541015625	309.7079162597656	-449.1968078613281	-1266.060913085938	621.124755859375	-485.9638061523438	-1187.234130859375	519.995361328125	-480.8594360351562	-1293.621826171875	171.6475982666016	-198.8454895019531	-1324.695556640625	386.3711853027344	-471.9208374023438	-1264.633422851562	525.0712280273438	-463.47509765625	-1010.193054199219	676.9815673828125	-188.1222229003906	-1289.01953125	62.16654968261719	-389.0577087402344	-1081.638916015625	646.2763671875	-174.2364044189453	-968.9549560546876	587.5485229492188	-211.7847290039062	-1044.174682617188	552.9053955078125	-192.7555389404297	-1239.68310546875	446.2390747070312	-472.3113098144531	-1002.143188476562	503.2260131835938	-198.4640350341797	-1257.401733398438	340.60498046875	-464.136474609375	-1318.028686523438	261.283447265625	-443.3688354492188	-1073.074951171875	416.042236328125	-205.572021484375	-1357.236694335938	66.1418228149414	-450.62646484375	-1123.809936523438	485.1790161132812	-206.4642181396484	-1528.600830078125	110.3398513793945	-340.2041320800781	-1159.596801757812	361.0755310058594	-221.1561737060547	-1200.380981445312	428.6784362792969	-221.5494995117188	-1458.996826171875	150.1881866455078	-422.5140991210938	-1323.793823242188	307.431884765625	-244.1696014404297	-1237.066650390625	115.9064788818359	-258.2825622558594	-1379.3017578125	327.2946166992188	-304.1459655761719	-1395.22119140625	297.8968505859375	-331.5552368164062	-1399.7392578125	318.1043701171875	-281.5651245117188	-1539.848388671875	114.2068328857422	-394.1961669921875
125	0.62	-1051.09423828125	1397.621337890625	-540.6687622070312	-1062.693969726562	1409.7705078125	-231.0183868408203	-1124.848388671875	962.0192260742188	-501.2361145019531	-1090.264526367188	960.5966796875	-221.8885040283203	-1083.165283203125	909.4996948242188	-481.2196044921875	-1525.2880859375	149.1981048583984	-367.0093688964844	-1067.268310546875	919.2843017578124	-243.2848663330078	-1229.369750976562	857.2300415039062	-507.0226440429688	-1202.312377929688	843.4329833984375	-183.2111968994141	-1246.173828125	975.3218383789062	-359.4586486816406	-1178.804809570312	619.96728515625	-508.3728637695312	-1378.622802734375	316.7611083984375	-450.408935546875	-1252.351684570312	627.3096313476562	-486.0270080566406	-1177.10693359375	523.2944946289062	-481.2872314453125	-1251.916259765625	167.9902954101562	-197.3430938720703	-1318.312866210938	392.2905883789062	-472.2643432617188	-1254.186645507812	531.259033203125	-463.944091796875	-985.648193359375	684.452392578125	-188.6937713623047	-1288.805908203125	61.92020416259766	-389.9825134277344	-1056.445434570312	652.3938598632812	-175.6616058349609	-942.8994750976562	595.7401733398438	-212.6642150878906	-1017.533874511719	560.0250854492188	-193.3152160644531	-1232.056762695312	451.3608093261719	-472.6516723632812	-974.400146484375	510.8235168457031	-199.2688598632812	-1251.226684570312	345.4209289550781	-465.4058837890625	-1312.86767578125	266.5086975097656	-444.6615905761719	-1042.708740234375	421.0921325683594	-205.1798400878906	-1355.898803710938	66.48432922363281	-451.0494995117188	-1096.627807617188	488.1455078125	-208.1112976074219	-1523.566772460938	117.4261245727539	-341.0165710449219	-1126.770385742188	361.9509887695312	-220.9775085449219	-1170.018920898438	427.9891662597656	-222.6553649902344	-1455.386596679688	156.9165496826172	-424.1680603027344	-1287.994018554688	301.403076171875	-244.9898071289062	-1192.069580078125	113.8269653320312	-254.717041015625	-1344.703979492188	316.7171020507812	-306.906005859375	-1358.032836914062	286.1852111816406	-332.4527282714844	-1364.765380859375	307.5690002441406	-283.0875854492188	-1535.029418945312	120.2263565063477	-394.5585021972656
126	0.625	-1028.837646484375	1402.298461914062	-539.4288330078125	-1043.874633789062	1414.501342773438	-230.4798583984375	-1102.323486328125	965.4526977539062	-501.5158386230469	-1068.131713867188	965.0916748046876	-222.5496673583984	-1061.223754882812	912.5418701171876	-481.4431762695312	-1519.56494140625	157.2065124511719	-368.9232177734375	-1045.50390625	923.4204711914062	-243.9441223144531	-1207.895141601562	861.4244384765625	-507.6512451171875	-1179.577392578125	848.67626953125	-182.7438659667969	-1224.33544921875	979.0771484375	-360.1459655761719	-1164.630615234375	623.4545288085938	-507.91943359375	-1371.70068359375	323.3571166992188	-451.2713012695312	-1238.482666015625	633.6129760742188	-486.1660461425781	-1166.256713867188	527.4834594726562	-481.9408569335938	-1210.0234375	164.5271606445312	-195.6083831787109	-1312.718017578125	398.792236328125	-472.9990844726562	-1243.337158203125	537.457763671875	-464.6499633789062	-961.2506713867188	691.7039184570312	-189.2970428466797	-1287.461181640625	61.30192565917969	-389.9365234375	-1031.15478515625	658.4061889648438	-176.1020050048828	-917.3442993164062	603.69677734375	-213.4577178955078	-991.0635986328124	566.6016845703125	-193.91943359375	-1223.754516601562	456.9083557128906	-473.3226013183594	-946.8267211914062	518.079833984375	-199.8508605957031	-1244.195190429688	351.3792419433594	-466.4225158691406	-1307.04833984375	272.7522888183594	-446.2138671875	-1012.715759277344	426.0180053710938	-205.3622436523438	-1355.231567382812	66.09407806396484	-451.2721557617188	-1070.218505859375	490.4335632324219	-208.6264190673828	-1518.783203125	125.6473541259766	-341.9480590820312	-1094.115966796875	363.8265075683594	-219.4337768554688	-1140.256958007812	426.9877624511719	-224.1842498779297	-1449.206665039062	163.0216979980469	-425.532958984375	-1252.675415039062	294.7662048339844	-245.9673614501953	-1146.937866210938	112.7391052246094	-251.4073181152344	-1309.51708984375	306.7675170898438	-308.4507751464844	-1321.301147460938	274.9729614257812	-332.8136291503906	-1329.04833984375	296.5497741699219	-284.9678649902344	-1530.260009765625	127.7427291870117	-395.3768920898438
127	0.63	-1006.564270019531	1407.7607421875	-537.8621215820312	-1025.164916992188	1418.907470703125	-229.7329559326172	-1079.989501953125	968.8256225585938	-501.204345703125	-1045.945068359375	969.9219970703124	-222.7705993652344	-1039.1396484375	915.8922119140624	-481.6014099121094	-1513.54345703125	165.6217498779297	-370.5442199707031	-1023.146057128906	928.1995849609376	-244.3141937255859	-1186.4052734375	865.5822143554688	-508.5602416992188	-1156.927856445312	853.723876953125	-181.9619598388672	-1202.203369140625	983.0530395507812	-360.3314819335938	-1150.53076171875	627.9110717773438	-508.3483581542969	-1364.693725585938	330.5451049804688	-452.4850769042969	-1223.839111328125	640.0067749023438	-486.706787109375	-1154.598754882812	532.0858154296875	-482.3909301757812	-1167.98681640625	161.2448577880859	-194.2828674316406	-1304.7919921875	405.8530883789062	-474.1445617675781	-1231.659423828125	543.74462890625	-465.3744201660156	-936.7445068359376	698.6909790039062	-190.0784149169922	-1286.26416015625	61.02065658569336	-390.6073913574219	-1006.3076171875	664.9246215820312	-176.2148895263672	-891.5673828125	611.7742309570312	-214.5507202148438	-965.0174560546876	573.5103149414062	-194.5745544433594	-1214.738037109375	462.8959045410156	-474.1489562988281	-920.1676635742188	525.6582641601562	-200.2956085205078	-1237.381958007812	357.3463134765625	-468.0125122070312	-1300.41015625	279.4086303710938	-448.2437133789062	-983.5304565429688	430.6614990234375	-205.7472076416016	-1352.52099609375	67.40193939208984	-452.8506164550781	-1042.878295898438	491.9000549316406	-211.4211273193359	-1513.335571289062	134.7074737548828	-343.0911865234375	-1061.335205078125	363.70361328125	-220.3556213378906	-1110.496215820312	425.1480102539062	-225.5394439697266	-1442.347778320312	168.8654174804688	-426.1423950195312	-1216.663452148438	288.1882629394531	-246.8443603515625	-1101.855102539062	112.191162109375	-248.3498077392578	-1272.811401367188	295.9343872070312	-309.6844787597656	-1279.769653320312	263.99951171875	-334.7768249511719	-1293.068115234375	285.639404296875	-286.6417541503906	-1523.865844726562	135.1524810791016	-395.56494140625
